#!OML:ASF I:\Actors\actors\Patient Classification 1\Patient 1\Session 1\Subject1.ASF
:FULLY-SPECIFIED
:DEGREES
496
root 0.292903 17.5016 8.76829 3.88873 45.3695 -9.47709
lowerback 3.68626 5.96182 6.09122
upperback -8.72614 8.66986 -1.13341
thorax -10.3428 3.72537 -5.60644
lowerneck -14.2441 -4.92648 -0.528716
upperneck 18.6545 -8.73247 10.3644
head 8.70286 -3.01735 2.55537
rclavicle 8.19987e-015 -7.95139e-015
rhumerus 2.24254 34.2146 -96.5847
rradius 133.632
rwrist 23.8951
rhand 45.2837 -56.197
rfingers 7.12502
rthumb 66.6025 -60.4576
lclavicle 8.19987e-015 -7.95139e-015
lhumerus -14.2228 -26.3166 96.9861
lradius 140.01
lwrist -13.3268
lhand 62.2435 10.9772
lfingers 7.12502
lthumb 74.9336 -29.5918
rfemur 2.80987 9.02368 30.1495
rtibia 5.55431
rfoot -35.8963 -46.0826
rtoes 30.8239
lfemur -14.0818 -36.4882 -3.56499
ltibia 0.255434
lfoot -1.9149 8.06009
ltoes -27.7296
497
root 0.28525 17.5057 8.75877 4.07794 44.3939 -9.4605
lowerback 3.80876 5.9588 6.08327
upperback -8.7874 8.67523 -1.14784
thorax -10.4844 3.71737 -5.64057
lowerneck -13.8321 -5.05859 0.238898
upperneck 18.4027 -8.96211 9.97035
head 8.5029 -3.13745 2.27506
rclavicle 6.91771e-014 1.19271e-014
rhumerus 2.18308 34.2074 -96.548
rradius 133.543
rwrist 23.7283
rhand 44.6425 -56.5571
rfingers 7.12502
rthumb 66.1132 -61.7643
lclavicle 6.91771e-014 1.19271e-014
lhumerus -14.3229 -26.4801 97.0243
lradius 140.009
lwrist -13.0165
lhand 61.9226 11.4684
lfingers 7.12502
lthumb 74.9055 -27.9141
rfemur 2.58795 9.45404 30.038
rtibia 5.56084
rfoot -35.0442 -45.7709
rtoes 30.3364
lfemur -13.8126 -36.7054 -3.41492
ltibia -0.0133881
lfoot -1.74796 9.45145
ltoes -27.8008
498
root 0.28048 17.5095 8.7488 4.30581 43.3155 -9.45577
lowerback 3.75084 5.90485 6.08651
upperback -8.76165 8.60021 -1.07962
thorax -10.4402 3.68589 -5.55282
lowerneck -13.934 -5.75019 -3.43359
upperneck 18.0587 -9.56918 12.1781
head 8.73303 -3.47821 3.54408
rclavicle 3.79182e-014 -9.54166e-015
rhumerus 2.37658 34.2349 -96.3314
rradius 133.378
rwrist 23.4617
rhand 44.56 -56.7456
rfingers 7.12502
rthumb 66.0498 -62.0718
lclavicle 3.79182e-014 -9.54166e-015
lhumerus -14.3023 -26.457 97.024
lradius 140.072
lwrist -12.9055
lhand 61.4895 11.8153
lfingers 7.12502
lthumb 74.8571 -25.9739
rfemur 2.25283 9.80035 29.8703
rtibia 5.68631
rfoot -34.2025 -45.1822
rtoes 29.9391
lfemur -13.5076 -37.1061 -3.24664
ltibia -0.345899
lfoot -1.52321 11.1747
ltoes -28.0067
499
root 0.279217 17.5137 8.73927 4.59247 42.0406 -9.3367
lowerback 3.70942 5.88822 6.02214
upperback -8.73766 8.56674 -1.0474
thorax -10.4055 3.67765 -5.47308
lowerneck -13.4578 -5.88059 -3.61014
upperneck 17.61 -9.70984 12.3952
head 8.52705 -3.57558 3.6331
rclavicle 1.22352e-013 4.05521e-014
rhumerus 2.52941 34.0182 -96.0997
rradius 133.224
rwrist 23.1648
rhand 44.6733 -56.6542
rfingers 7.12502
rthumb 66.1369 -61.8169
lclavicle 1.22352e-013 4.05521e-014
lhumerus -14.3169 -26.5379 97.1242
lradius 140.11
lwrist -13.0251
lhand 61.435 11.8089
lfingers 7.12502
lthumb 74.8502 -25.7808
rfemur 1.86057 10.0205 29.5448
rtibia 5.96454
rfoot -33.136 -44.3624
rtoes 29.393
lfemur -13.0052 -37.8088 -3.25252
ltibia -0.731638
lfoot -1.23522 13.3645
ltoes -27.9142
500
root 0.278772 17.5179 8.72718 4.95778 40.537 -9.07882
lowerback 3.69577 5.80749 5.78659
upperback -8.73961 8.43784 -0.978135
thorax -10.4566 3.63315 -5.26013
lowerneck -12.8234 -5.99327 -4.17299
upperneck 17.1934 -9.79116 12.8048
head 8.32841 -3.65876 3.86373
rclavicle -3.11595e-014 -3.18055e-014
rhumerus 2.50542 33.9328 -96.0176
rradius 133.059
rwrist 23.0202
rhand 45.0674 -56.2688
rfingers 7.12502
rthumb 66.4382 -60.8534
lclavicle -3.11595e-014 -3.18055e-014
lhumerus -14.4305 -26.4716 97.2481
lradius 140.161
lwrist -13.2415
lhand 61.3663 11.6559
lfingers 7.12502
lthumb 74.8412 -25.6823
rfemur 1.3518 10.1042 29.0223
rtibia 6.41181
rfoot -31.684 -43.3781
rtoes 28.2747
lfemur -12.3694 -38.6352 -3.44303
ltibia -1.12016
lfoot -0.902584 15.883
ltoes -27.6749
501
root 0.279136 17.5226 8.71096 5.35086 38.804 -8.7313
lowerback 3.63893 5.59729 5.47674
upperback -8.69939 8.12526 -0.853485
thorax -10.4713 3.51003 -4.9219
lowerneck -12.5384 -6.09419 -4.55203
upperneck 17.2406 -9.88607 12.8729
head 8.32241 -3.73614 3.94432
rclavicle 9.07949e-014 3.89618e-014
rhumerus 2.53624 34.1509 -96.0008
rradius 132.852
rwrist 23.1581
rhand 46.025 -55.6573
rfingers 7.12502
rthumb 67.1594 -58.7715
lclavicle 9.07949e-014 3.89618e-014
lhumerus -14.5446 -26.1617 97.2783
lradius 140.201
lwrist -13.6519
lhand 60.9278 11.3359
lfingers 7.12502
lthumb 74.7767 -24.4048
rfemur 0.752864 10.0972 28.3454
rtibia 6.98333
rfoot -30.0281 -42.2385
rtoes 26.5906
lfemur -11.6454 -39.4542 -3.80601
ltibia -1.4391
lfoot -0.694312 18.6154
ltoes -27.1457
502
root 0.281572 17.5291 8.693 5.66463 36.8043 -8.44868
lowerback 3.60223 5.39314 5.26271
upperback -8.63853 7.82501 -0.76998
thorax -10.4514 3.3844 -4.67982
lowerneck -12.9802 -6.42915 -4.48324
upperneck 17.9437 -10.3482 12.3151
head 8.64686 -3.96087 3.68036
rclavicle 1.50082e-014 -1.59028e-014
rhumerus 2.64242 34.1939 -95.9166
rradius 132.635
rwrist 23.3765
rhand 47.0471 -54.9507
rfingers 7.12502
rthumb 67.9103 -56.3878
lclavicle 1.50082e-014 -1.59028e-014
lhumerus -14.6196 -25.9912 97.2809
lradius 140.132
lwrist -14.34
lhand 60.7166 10.9114
lfingers 7.12502
lthumb 74.7413 -24.0653
rfemur 0.131743 10.127 27.6917
rtibia 7.62822
rfoot -28.3744 -40.9548
rtoes 24.6346
lfemur -10.7963 -40.0132 -4.2565
ltibia -1.68265
lfoot -0.774453 21.2907
ltoes -26.0102
503
root 0.285142 17.5356 8.67432 5.91303 34.5597 -8.29996
lowerback 3.52846 5.19855 5.06641
upperback -8.58238 7.54 -0.657115
thorax -10.4121 3.26709 -4.41311
lowerneck -12.574 -6.75553 -4.82211
upperneck 17.8345 -10.7621 12.4213
head 8.59891 -4.19389 3.72654
rclavicle -8.56265e-014 -1.59028e-014
rhumerus 2.74782 34.0999 -95.7542
rradius 132.398
rwrist 23.4355
rhand 47.5247 -54.3656
rfingers 7.12502
rthumb 68.254 -54.9785
lclavicle -8.56265e-014 -1.59028e-014
lhumerus -14.6684 -26.0156 97.3521
lradius 140.01
lwrist -15.0994
lhand 60.6611 10.7538
lfingers 7.12502
lthumb 74.7316 -24.0226
rfemur -0.524231 10.3006 27.1563
rtibia 8.28243
rfoot -26.7222 -39.58
rtoes 22.451
lfemur -9.90199 -40.2889 -4.6561
ltibia -1.88174
lfoot -0.992224 23.8157
ltoes -24.612
504
root 0.28992 17.5408 8.65616 6.15529 32.0785 -8.13505
lowerback 3.41641 4.95577 4.78396
upperback -8.50558 7.18116 -0.513875
thorax -10.3442 3.12344 -4.05438
lowerneck -12.09 -7.1087 -5.37711
upperneck 17.7877 -11.2238 12.7171
head 8.58939 -4.44706 3.87002
rclavicle 6.26172e-015 -1.66979e-014
rhumerus 2.89559 34.1407 -95.5514
rradius 132.195
rwrist 23.3184
rhand 47.2188 -54.4813
rfingers 7.12502
rthumb 68.0344 -55.6252
lclavicle 6.26172e-015 -1.66979e-014
lhumerus -14.6026 -26.0032 97.3943
lradius 139.873
lwrist -15.4612
lhand 60.79 11.0515
lfingers 7.12502
lthumb 74.7539 -24.1902
rfemur -1.13906 10.7045 26.6112
rtibia 8.86307
rfoot -25.179 -38.1442
rtoes 20.4577
lfemur -8.89995 -40.6033 -5.17542
ltibia -2.02091
lfoot -1.2522 26.482
ltoes -23.1462
